<?xml version="1.0" encoding="UTF-8"?>
<svg xmlns="http://www.w3.org/2000/svg" xmlns:xlink="http://www.w3.org/1999/xlink" viewBox="0 0 1920 180">
  <defs>
    <style>
      .cls-1, .cls-2, .cls-3, .cls-4, .cls-5, .cls-6, .cls-7, .cls-8, .cls-9, .cls-10, .cls-11, .cls-12, .cls-13, .cls-14 {
        stroke-miterlimit: 10;
      }

      .cls-1, .cls-2, .cls-4, .cls-5, .cls-7, .cls-8, .cls-9, .cls-10, .cls-11, .cls-12, .cls-13, .cls-14 {
        stroke: #000;
      }

      .cls-1, .cls-3 {
        fill: #fff;
      }

      .cls-15 {
        letter-spacing: .4em;
      }

      .cls-16, .cls-17 {
        letter-spacing: .4em;
      }

      .cls-18 {
        letter-spacing: .4em;
      }

      .cls-2 {
        fill: #ffdd2e;
      }

      .cls-3 {
        opacity: .3;
        stroke: #fff;
      }

      .cls-3, .cls-5, .cls-6, .cls-7, .cls-8, .cls-9, .cls-11, .cls-12, .cls-14 {
        stroke-width: 2px;
      }

      .cls-19 {
        clip-path: url(#clippath);
      }

      .cls-20 {
        fill: none;
      }

      .cls-20, .cls-21, .cls-22, .cls-23 {
        stroke-width: 0px;
      }

      .cls-4, .cls-24, .cls-17, .cls-22, .cls-8, .cls-10 {
        fill: #000;
      }

      .cls-5 {
        fill: #ffc716;
      }

      .cls-24, .cls-17 {
        font-family: NotoSansKR-ExtraLight, 'Noto Sans KR';
        font-size: 12px;
        font-variation-settings: 'wght' 200;
        font-weight: 200;
      }

      .cls-6 {
        stroke: #2d2d2d;
      }

      .cls-6, .cls-10 {
        font-family: NotoSansKR-Black, 'Noto Sans KR';
        font-variation-settings: 'wght' 900;
        font-weight: 800;
      }

      .cls-6, .cls-13 {
        fill: #ff6e3d;
      }

      .cls-25 {
        mix-blend-mode: multiply;
      }

      .cls-21 {
        fill: #ffee8b;
      }

      .cls-7 {
        fill: #ffab00;
      }

      .cls-26 {
        filter: url(#drop-shadow-1);
      }

      .cls-27 {
        font-size: 80px;
      }

      .cls-28 {
        font-size: 100px;
      }

      .cls-9 {
        fill: #da6555;
      }

      .cls-23 {
        fill: #fff2c9;
      }

      .cls-11 {
        fill: #ccc;
      }

      .cls-29 {
        letter-spacing: .38em;
      }

      .cls-12 {
        fill: #ffe460;
      }

      .cls-30 {
        isolation: isolate;
      }

      .cls-31 {
        letter-spacing: .39em;
      }

      .cls-14 {
        fill: #bc493e;
      }
    </style>
    <filter id="drop-shadow-1" filterUnits="userSpaceOnUse">
      <feOffset dx="4" dy="4"/>
      <feGaussianBlur result="blur" stdDeviation="5"/>
      <feFlood flood-color="#3d1b04" flood-opacity=".4"/>
      <feComposite in2="blur" operator="in"/>
      <feComposite in="SourceGraphic"/>
    </filter>
    <clipPath id="clippath">
      <rect class="cls-20" width="1920" height="180"/>
    </clipPath>
  </defs>
  <g class="cls-30">
    <g id="OBJECTS">
      <g class="cls-26">
        <g class="cls-19">
          <rect class="cls-21" y="-40" width="1920" height="250"/>
          <rect class="cls-4" x="786.79" y=".68" width="135.8" height="17.78" rx="7.99" ry="7.99" transform="translate(243.6 607.19) rotate(-45)"/>
          <path class="cls-4" d="M819.61,57.94l83.45-83.45c1.77-1.77,2.75-4.13,2.75-6.64s-.98-4.87-2.75-6.64h0c-1.77-1.77-4.13-2.75-6.64-2.75s-4.87.98-6.64,2.75l-83.45,83.45c-1.77,1.77-2.75,4.13-2.75,6.64s.98,4.87,2.75,6.64c1.77,1.77,4.13,2.75,6.64,2.75s4.87-.98,6.64-2.75ZM902.35-38.09c1.58,1.58,2.46,3.69,2.46,5.93s-.87,4.35-2.46,5.93l-83.45,83.45c-1.58,1.58-3.69,2.46-5.93,2.46s-4.35-.87-5.93-2.46c-1.58-1.58-2.46-3.69-2.46-5.93s.87-4.35,2.46-5.93l83.45-83.45c1.64-1.64,3.78-2.45,5.93-2.45s4.3.82,5.93,2.45Z"/>
          <g>
            <circle class="cls-8" cx="770.22" cy="122.93" r="54.4"/>
            <g>
              <circle class="cls-8" cx="770.22" cy="122.93" r="43.79"/>
              <path class="cls-8" d="M779.17,167.46c-24.56,4.94-48.55-11.02-53.49-35.58-4.94-24.56,11.02-48.55,35.58-53.49,24.56-4.94,48.55,11.02,53.49,35.58,4.94,24.56-11.02,48.55-35.58,53.49ZM761.91,81.59c-22.79,4.58-37.6,26.85-33.02,49.64,4.58,22.79,26.85,37.6,49.64,33.02,22.79-4.58,37.6-26.85,33.02-49.64-4.58-22.79-26.85-37.6-49.64-33.02Z"/>
            </g>
            <g>
              <g>
                <path class="cls-8" d="M783.71,155.3c-2.61,1.92-5.73,2.12-6.97.43s-.14-4.61,2.46-6.54c2.61-1.92,5.73-2.12,6.97-.43,1.24,1.69.14,4.61-2.46,6.54Z"/>
                <path class="cls-8" d="M788.46,144.65c1.79-2.52,4.56-3.63,6.19-2.47s1.51,4.14-.28,6.66c-1.79,2.52-4.56,3.63-6.19,2.47-1.63-1.16-1.51-4.14.28-6.66Z"/>
                <path class="cls-8" d="M794.82,138.22c.83-2.82,2.98-4.67,4.81-4.13,1.83.54,2.63,3.26,1.8,6.08-.83,2.82-2.98,4.67-4.81,4.13-1.83-.54-2.63-3.26-1.8-6.08Z"/>
                <path class="cls-8" d="M798.56,130.41c-.04-2.79,1.39-5.08,3.2-5.1,1.81-.03,3.31,2.21,3.35,5s-1.39,5.08-3.2,5.1c-1.81.03-3.31-2.21-3.35-5Z"/>
                <path class="cls-8" d="M799.83,121.83c-.73-2.54.01-4.98,1.66-5.46,1.64-.47,3.57,1.2,4.3,3.75s-.01,4.98-1.66,5.46c-1.64.47-3.57-1.2-4.3-3.75Z"/>
                <path class="cls-8" d="M798.78,113.23c-1.25-2.16-1.13-4.57.27-5.38,1.4-.81,3.54.29,4.79,2.45,1.25,2.16,1.13,4.57-.27,5.38-1.4.81-3.54-.29-4.79-2.45Z"/>
                <path class="cls-8" d="M795.65,105.41c-1.65-1.67-2.1-3.9-1.02-4.96,1.08-1.07,3.3-.57,4.94,1.1s2.1,3.9,1.02,4.96c-1.08,1.07-3.3.57-4.94-1.1Z"/>
                <path class="cls-8" d="M790.73,99.12c-1.93-1.06-2.94-2.93-2.26-4.18.68-1.25,2.8-1.41,4.74-.35,1.93,1.06,2.94,2.93,2.26,4.18s-2.8,1.41-4.74.35Z"/>
                <path class="cls-8" d="M784.29,95.01c-2.03-.3-3.52-1.61-3.33-2.93.2-1.32,2-2.14,4.03-1.84,2.03.3,3.52,1.61,3.33,2.93s-2,2.14-4.03,1.84Z"/>
              </g>
              <g>
                <path class="cls-8" d="M770.3,158c3.15.77,6.1-.26,6.6-2.3s-1.65-4.31-4.8-5.08c-3.15-.77-6.1.26-6.6,2.3-.5,2.04,1.65,4.31,4.8,5.08Z"/>
                <path class="cls-8" d="M761.79,150.01c-2.62-1.63-5.6-1.58-6.66.11s.21,4.4,2.83,6.03c2.62,1.63,5.6,1.58,6.66-.11,1.06-1.7-.21-4.4-2.83-6.03Z"/>
                <path class="cls-8" d="M753.45,146.54c-1.86-2.28-4.56-3.15-6.03-1.95-1.48,1.2-1.17,4.02.69,6.3,1.86,2.28,4.56,3.15,6.03,1.95,1.48-1.2,1.17-4.02-.69-6.3Z"/>
                <path class="cls-8" d="M746.97,140.78c-1.04-2.59-3.24-4.14-4.92-3.47-1.68.67-2.19,3.32-1.15,5.91s3.24,4.14,4.92,3.47c1.68-.67,2.19-3.32,1.15-5.91Z"/>
                <path class="cls-8" d="M742.49,133.36c-.31-2.63-1.94-4.59-3.64-4.39-1.7.2-2.83,2.49-2.52,5.12s1.94,4.59,3.64,4.39c1.7-.2,2.83-2.49,2.52-5.12Z"/>
                <path class="cls-8" d="M740.13,125.02c.32-2.48-.73-4.65-2.33-4.85-1.6-.2-3.16,1.64-3.47,4.11-.32,2.48.73,4.65,2.33,4.85,1.6.2,3.16-1.64,3.47-4.11Z"/>
                <path class="cls-8" d="M740,116.6c.87-2.18.43-4.41-.98-4.97-1.41-.56-3.26.75-4.13,2.93s-.43,4.41.98,4.97c1.41.56,3.26-.75,4.13-2.93Z"/>
                <path class="cls-8" d="M742.11,108.9c1.37-1.72,1.58-3.84.47-4.73-1.11-.89-3.13-.21-4.5,1.51-1.37,1.72-1.58,3.84-.47,4.73s3.13.21,4.5-1.51Z"/>
                <path class="cls-8" d="M746.46,102.62c1.76-1.06,2.63-2.85,1.94-3.99-.69-1.14-2.67-1.2-4.43-.14-1.76,1.06-2.63,2.85-1.94,3.99s2.67,1.2,4.43.14Z"/>
              </g>
              <rect class="cls-8" x="770.21" y="147.93" width="12.4" height="11.55" rx="4.56" ry="4.56" transform="translate(-15.07 156.08) rotate(-11.37)"/>
            </g>
            <g class="cls-25">
              <path class="cls-8" d="M780.94,176.26c29.45-5.92,48.53-34.6,42.61-64.06-5.92-29.45-34.6-48.53-64.06-42.61l21.45,106.66Z"/>
            </g>
            <g>
              <path class="cls-8" d="M775.57,46.73l-39.73,7.99c-2.78.56-4.59,3.28-4.03,6.06.56,2.78,3.28,4.59,6.06,4.03l18.76-3.77.57,2.83c-2.85,1.12-4.59,4.15-3.96,7.26,0,.04.02.08.03.12.69-.23,1.39-.44,2.09-.64-.41-2.27,1.07-4.47,3.35-4.93s4.49,1,4.99,3.25c.73-.09,1.45-.16,2.18-.22,0-.04,0-.08-.02-.12-.62-3.1-3.4-5.23-6.46-5.16l-.57-2.83,18.76-3.77c2.78-.56,4.59-3.28,4.03-6.06s-3.28-4.59-6.06-4.03ZM777.19,54.83l-39.73,7.99c-1.68.34-3.32-.75-3.66-2.43s.75-3.32,2.43-3.66l39.73-7.99c1.68-.34,3.32.75,3.66,2.43s-.75,3.32-2.43,3.66Z"/>
              <g class="cls-25">
                <path class="cls-8" d="M775.57,46.73l-19.86,3.99.4,2,19.86-3.99c1.68-.34,3.32.75,3.66,2.43s-.75,3.32-2.43,3.66l-19.86,3.99,1.38,6.86c2.27-.46,4.49,1,4.99,3.25.73-.09,1.45-.16,2.18-.22,0-.04,0-.08-.02-.12-.62-3.1-3.4-5.23-6.46-5.16l-.57-2.83,18.76-3.77c2.78-.56,4.59-3.28,4.03-6.06s-3.28-4.59-6.06-4.03Z"/>
              </g>
            </g>
            <polygon class="cls-8" points="696.82 -3.91 775.97 48.74 736.24 56.73 657.09 4.08 696.82 -3.91"/>
            <polygon class="cls-8" points="788.89 -22.43 736.24 56.73 775.97 48.74 828.62 -30.41 788.89 -22.43"/>
            <g class="cls-25">
              <polygon class="cls-8" points="752.11 32.87 756.1 52.73 775.97 48.74 828.62 -30.41 788.89 -22.43 752.11 32.87"/>
            </g>
          </g>
          <g>
            <g>
              <g>
                <path class="cls-23" d="M743.79,67.1c-.66-3.27.92-6.52,3.8-8.04l-.22-1.07-17.78,3.58c-.4.08-.81.12-1.21.12-2.92,0-5.45-2.08-6.03-4.94-.67-3.32,1.49-6.57,4.82-7.24l39.73-7.99c.4-.08.81-.12,1.21-.12,2.92,0,5.45,2.08,6.03,4.94.32,1.61,0,3.25-.91,4.62s-2.3,2.3-3.91,2.62l-17.78,3.58.22,1.07c3.24.3,5.96,2.7,6.61,5.93l.02.14.13,1.04-1.04.13c-.71.06-1.42.13-2.14.22l-.9.11-.2-.88c-.33-1.48-1.67-2.55-3.17-2.55-.21,0-.43.02-.64.06-1.72.35-2.87,2.04-2.56,3.77l.16.89-.87.25c-.69.2-1.38.4-2.06.62l-1.05.34-.27-1.2ZM768.11,45.44c-.14,0-.28.01-.42.04l-39.73,7.99c-.55.11-1.02.43-1.34.9-.31.47-.42,1.03-.31,1.58.2.98,1.06,1.69,2.06,1.69.14,0,.28-.01.42-.04l39.73-7.99c1.14-.23,1.88-1.34,1.65-2.48-.2-.98-1.06-1.69-2.06-1.69Z"/>
                <path class="cls-22" d="M768.11,42.4c2.4,0,4.56,1.69,5.05,4.14.56,2.78-1.25,5.5-4.03,6.06l-18.76,3.77.57,2.83c.05,0,.1,0,.15,0,3,0,5.7,2.11,6.31,5.16,0,.04.01.08.02.12-.72.06-1.45.14-2.18.22-.44-1.97-2.19-3.33-4.15-3.33-.28,0-.56.03-.84.08-2.27.46-3.75,2.66-3.35,4.93-.7.2-1.4.41-2.09.64,0-.04-.02-.08-.03-.12-.62-3.1,1.11-6.14,3.96-7.26l-.57-2.83-18.76,3.77c-.34.07-.68.1-1.02.1-2.4,0-4.56-1.69-5.05-4.14-.56-2.78,1.25-5.5,4.03-6.06l39.73-7.99c.34-.07.68-.1,1.02-.1M728.38,58.64c.2,0,.41-.02.61-.06l39.73-7.99c1.68-.34,2.77-1.98,2.43-3.66-.3-1.47-1.6-2.49-3.04-2.49-.2,0-.41.02-.61.06l-39.73,7.99c-1.68.34-2.77,1.98-2.43,3.66.3,1.47,1.6,2.49,3.04,2.49M768.11,40.4c-.47,0-.95.05-1.41.14l-39.73,7.99c-3.86.78-6.38,4.55-5.6,8.42.67,3.33,3.62,5.74,7.01,5.74.47,0,.95-.05,1.41-.14l15.58-3.13c-2.12,1.95-3.16,4.91-2.57,7.88.01.06.03.13.04.19l.47,2.12,2.1-.69c.63-.21,1.29-.41,2.02-.61l1.74-.49-.32-1.78c-.21-1.2.58-2.37,1.77-2.61.15-.03.3-.04.45-.04,1.04,0,1.97.74,2.2,1.77l.4,1.77,1.8-.22c.75-.09,1.43-.16,2.1-.22l2.2-.18-.39-2.14c0-.07-.02-.13-.03-.19-.59-2.95-2.71-5.29-5.42-6.27l15.59-3.14c1.87-.38,3.48-1.46,4.54-3.05s1.43-3.5,1.06-5.37c-.67-3.33-3.62-5.74-7.01-5.74h0ZM728.38,56.64c-.52,0-.98-.37-1.08-.89-.12-.6.27-1.18.87-1.3l39.73-7.99c.07-.01.15-.02.22-.02.52,0,.98.37,1.08.89.06.29,0,.58-.16.83-.16.25-.41.41-.7.47l-39.73,7.99c-.07.01-.15.02-.22.02h0Z"/>
              </g>
              <g class="cls-25">
                <g>
                  <path class="cls-23" d="M754.25,64.92c-.33-1.48-1.67-2.55-3.17-2.55-.21,0-.43.02-.64.06l-.98.2-1.77-8.82,20.84-4.19c1.14-.23,1.88-1.34,1.65-2.48-.2-.98-1.06-1.69-2.06-1.69-.14,0-.28.01-.42.04l-20.84,4.19-.8-3.97,20.84-4.19c.4-.08.81-.12,1.21-.12,2.92,0,5.45,2.08,6.03,4.94.32,1.61,0,3.25-.91,4.62s-2.3,2.3-3.91,2.62l-17.78,3.58.22,1.07c3.24.3,5.96,2.7,6.61,5.93l.02.14.13,1.04-1.04.13c-.71.06-1.42.13-2.14.22l-.9.11-.2-.88Z"/>
                  <path class="cls-22" d="M768.11,42.4c2.4,0,4.56,1.69,5.05,4.14.56,2.78-1.25,5.5-4.03,6.06l-18.76,3.77.57,2.83c.05,0,.1,0,.15,0,3,0,5.7,2.11,6.31,5.16,0,.04.01.08.02.12-.72.06-1.45.14-2.18.22-.44-1.97-2.19-3.33-4.15-3.33-.28,0-.56.03-.84.08l-1.38-6.86,19.86-3.99c1.68-.34,2.77-1.98,2.43-3.66-.3-1.47-1.6-2.49-3.04-2.49-.2,0-.41.02-.61.06l-19.86,3.99-.4-2,19.86-3.99c.34-.07.68-.1,1.02-.1M768.11,40.4c-.47,0-.95.05-1.41.14l-19.86,3.99-1.96.39.39,1.96.4,2,.39,1.96,1.96-.39,19.86-3.99c.07-.01.15-.02.22-.02.52,0,.98.37,1.08.89.12.6-.27,1.18-.87,1.3l-19.86,3.99-1.96.39.39,1.96,1.38,6.86.39,1.96,1.96-.39c.15-.03.3-.04.45-.04,1.04,0,1.97.74,2.2,1.77l.4,1.77,1.8-.22c.75-.09,1.43-.16,2.1-.22l2.2-.18-.39-2.14c0-.07-.02-.13-.03-.19-.59-2.95-2.71-5.29-5.42-6.27l15.59-3.14c1.87-.38,3.48-1.46,4.54-3.05s1.43-3.5,1.06-5.37c-.67-3.33-3.62-5.74-7.01-5.74h0Z"/>
                </g>
              </g>
            </g>
            <circle class="cls-5" cx="761.75" cy="118.69" r="54.4"/>
            <g>
              <circle class="cls-12" cx="761.75" cy="118.69" r="43.79"/>
              <path class="cls-7" d="M770.71,163.22c-24.56,4.94-48.55-11.02-53.49-35.58-4.94-24.56,11.02-48.55,35.58-53.49,24.56-4.94,48.55,11.02,53.49,35.58s-11.02,48.55-35.58,53.49ZM753.44,77.36c-22.79,4.58-37.6,26.85-33.02,49.64,4.58,22.79,26.85,37.6,49.64,33.02,22.79-4.58,37.6-26.85,33.02-49.64-4.58-22.79-26.85-37.6-49.64-33.02Z"/>
            </g>
            <g>
              <g>
                <path class="cls-5" d="M775.24,151.07c-2.61,1.92-5.73,2.12-6.97.43s-.14-4.61,2.46-6.54c2.61-1.92,5.73-2.12,6.97-.43,1.24,1.69.14,4.61-2.46,6.54Z"/>
                <path class="cls-5" d="M780,140.41c1.79-2.52,4.56-3.63,6.19-2.47s1.51,4.14-.28,6.66c-1.79,2.52-4.56,3.63-6.19,2.47-1.63-1.16-1.51-4.14.28-6.66Z"/>
                <path class="cls-5" d="M786.35,133.99c.83-2.82,2.98-4.67,4.81-4.13,1.83.54,2.63,3.26,1.8,6.08-.83,2.82-2.98,4.67-4.81,4.13-1.83-.54-2.63-3.26-1.8-6.08Z"/>
                <path class="cls-5" d="M790.09,126.18c-.04-2.79,1.39-5.08,3.2-5.1,1.81-.03,3.31,2.21,3.35,5,.04,2.79-1.39,5.08-3.2,5.1-1.81.03-3.31-2.21-3.35-5Z"/>
                <path class="cls-5" d="M791.36,117.59c-.73-2.54.01-4.98,1.66-5.46,1.64-.47,3.57,1.2,4.3,3.75s-.01,4.98-1.66,5.46c-1.64.47-3.57-1.2-4.3-3.75Z"/>
                <path class="cls-5" d="M790.31,108.99c-1.25-2.16-1.13-4.57.27-5.38,1.4-.81,3.54.29,4.79,2.45,1.25,2.16,1.13,4.57-.27,5.38-1.4.81-3.54-.29-4.79-2.45Z"/>
                <path class="cls-5" d="M787.18,101.18c-1.65-1.67-2.1-3.9-1.02-4.96,1.08-1.07,3.3-.57,4.94,1.1s2.1,3.9,1.02,4.96c-1.08,1.07-3.3.57-4.94-1.1Z"/>
                <path class="cls-5" d="M782.26,94.89c-1.93-1.06-2.94-2.93-2.26-4.18.68-1.25,2.8-1.41,4.74-.35,1.93,1.06,2.94,2.93,2.26,4.18s-2.8,1.41-4.74.35Z"/>
                <path class="cls-5" d="M775.82,90.78c-2.03-.3-3.52-1.61-3.33-2.93.2-1.32,2-2.14,4.03-1.84,2.03.3,3.52,1.61,3.33,2.93s-2,2.14-4.03,1.84Z"/>
              </g>
              <g>
                <path class="cls-5" d="M761.83,153.77c3.15.77,6.1-.26,6.6-2.3s-1.65-4.31-4.8-5.08c-3.15-.77-6.1.26-6.6,2.3-.5,2.04,1.65,4.31,4.8,5.08Z"/>
                <path class="cls-5" d="M753.32,145.78c-2.62-1.63-5.6-1.58-6.66.11s.21,4.4,2.83,6.03c2.62,1.63,5.6,1.58,6.66-.11,1.06-1.7-.21-4.4-2.83-6.03Z"/>
                <path class="cls-5" d="M744.98,142.31c-1.86-2.28-4.56-3.15-6.03-1.95-1.48,1.2-1.17,4.02.69,6.3,1.86,2.28,4.56,3.15,6.03,1.95,1.48-1.2,1.17-4.02-.69-6.3Z"/>
                <path class="cls-5" d="M738.51,136.55c-1.04-2.59-3.24-4.14-4.92-3.47-1.68.67-2.19,3.32-1.15,5.91s3.24,4.14,4.92,3.47c1.68-.67,2.19-3.32,1.15-5.91Z"/>
                <path class="cls-5" d="M734.02,129.12c-.31-2.63-1.94-4.59-3.64-4.39-1.7.2-2.83,2.49-2.52,5.12s1.94,4.59,3.64,4.39c1.7-.2,2.83-2.49,2.52-5.12Z"/>
                <path class="cls-5" d="M731.66,120.79c.32-2.48-.73-4.65-2.33-4.85-1.6-.2-3.16,1.64-3.47,4.11-.32,2.48.73,4.65,2.33,4.85,1.6.2,3.16-1.64,3.47-4.11Z"/>
                <path class="cls-5" d="M731.53,112.37c.87-2.18.43-4.41-.98-4.97-1.41-.56-3.26.75-4.13,2.93s-.43,4.41.98,4.97c1.41.56,3.26-.75,4.13-2.93Z"/>
                <path class="cls-5" d="M733.64,104.66c1.37-1.72,1.58-3.84.47-4.73-1.11-.89-3.13-.21-4.5,1.51-1.37,1.72-1.58,3.84-.47,4.73s3.13.21,4.5-1.51Z"/>
                <path class="cls-5" d="M737.99,98.39c1.76-1.06,2.63-2.85,1.94-3.99-.69-1.14-2.67-1.2-4.43-.14-1.76,1.06-2.63,2.85-1.94,3.99s2.67,1.2,4.43.14Z"/>
              </g>
              <rect class="cls-7" x="761.74" y="143.7" width="12.4" height="11.55" rx="4.56" ry="4.56" transform="translate(-14.4 154.33) rotate(-11.37)"/>
            </g>
            <g class="cls-25">
              <path class="cls-11" d="M772.48,172.02c29.45-5.92,48.53-34.6,42.61-64.06s-34.6-48.53-64.06-42.61l21.45,106.66Z"/>
            </g>
            <polygon class="cls-9" points="688.35 -8.15 767.5 44.5 727.77 52.49 648.62 -.16 688.35 -8.15"/>
            <polygon class="cls-14" points="780.42 -26.66 727.77 52.49 767.5 44.5 820.15 -34.65 780.42 -26.66"/>
            <g class="cls-25">
              <polygon class="cls-11" points="743.64 28.63 747.64 48.5 767.5 44.5 820.15 -34.65 780.42 -26.66 743.64 28.63"/>
            </g>
          </g>
          <path class="cls-13" d="M690.56,56.78l-.19.19c-.59.6-1.63.6-2.23,0-2.78-2.78-6.48-4.31-10.42-4.31s-7.63,1.53-10.41,4.31c-.59.6-1.64.6-2.23,0-4.92-4.92-12.47-5.61-18.14-2.11h0c-.95.59-1.86,1.28-2.69,2.11-.6.6-1.64.59-2.23,0-2.78-2.78-6.48-4.31-10.42-4.31s-7.63,1.53-10.42,4.32c-.38.38-.82.46-1.11.46-.42,0-.81-.16-1.11-.46l-.2-.2c-5.56-5.55-14.35-5.79-20.19-.6l9.01,9.64c.6-.34,1.36-.25,1.87.26l.2.2c2.78,2.78,6.48,4.31,10.41,4.31s7.63-1.53,10.42-4.31c.59-.6,1.63-.6,2.23,0,2.78,2.78,6.48,4.31,10.42,4.31,1.3,0,2.57-.18,3.8-.51h0c2.48-.66,4.75-1.94,6.62-3.8.62-.61,1.62-.61,2.23,0,2.78,2.78,6.48,4.31,10.42,4.31s7.63-1.53,10.42-4.31c.3-.3.69-.46,1.12-.46s.82.16,1.11.46c2.78,2.78,6.48,4.31,10.42,4.31s7.63-1.53,10.41-4.31l.19-.19c.51-.51,1.28-.6,1.88-.27l9.01-9.64c-5.84-5.19-14.63-4.95-20.19.61Z"/>
          <path class="cls-4" d="M711.56,55.87c-6.14-5.74-15.61-5.58-21.55.36l-.19.19c-.3.3-.83.3-1.14,0-2.93-2.93-6.82-4.54-10.96-4.54s-8.03,1.61-10.96,4.54c-.31.31-.82.31-1.14,0-5.06-5.06-12.77-5.87-18.69-2.46h0c-1.15.66-2.25,1.47-3.23,2.46-.31.31-.82.31-1.14,0-2.93-2.93-6.82-4.54-10.96-4.54s-8.03,1.61-10.96,4.54c-.16.16-.35.23-.57.23-.15,0-.37-.04-.56-.23l-.2-.2c-5.94-5.94-15.41-6.1-21.55-.36l-.28.26,10.04,10.74.28-.26c.32-.3.81-.29,1.11.01l.2.2c2.93,2.93,6.82,4.54,10.96,4.54s8.03-1.61,10.96-4.54c.31-.31.82-.31,1.14,0,2.93,2.93,6.82,4.54,10.96,4.54,1.3,0,2.57-.18,3.8-.49h0c2.69-.67,5.15-2.05,7.16-4.05.31-.31.82-.31,1.14,0,2.93,2.93,6.82,4.54,10.96,4.54s8.03-1.61,10.96-4.54c.31-.31.82-.31,1.14,0,2.93,2.93,6.82,4.54,10.96,4.54s8.03-1.61,10.96-4.54l.19-.19c.31-.31.8-.32,1.12-.02l.28.26,10.04-10.74-.28-.26ZM701.74,65.82c-.6-.33-1.37-.24-1.88.27l-.19.19c-2.78,2.78-6.48,4.31-10.41,4.31s-7.63-1.53-10.42-4.31c-.3-.3-.69-.46-1.11-.46s-.82.16-1.12.46c-2.78,2.78-6.48,4.31-10.42,4.31s-7.63-1.53-10.42-4.31c-.61-.61-1.61-.61-2.23,0-1.86,1.86-4.14,3.15-6.62,3.81h0c-1.23.32-2.5.51-3.8.51-3.93,0-7.63-1.53-10.42-4.31-.59-.6-1.64-.6-2.23,0-2.78,2.78-6.48,4.31-10.42,4.31s-7.63-1.53-10.41-4.31l-.2-.2c-.51-.51-1.27-.6-1.87-.26l-9.01-9.64c5.84-5.19,14.63-4.95,20.19.6l.2.2c.29.29.69.46,1.11.46.3,0,.73-.08,1.11-.46,2.78-2.78,6.48-4.32,10.42-4.32s7.63,1.53,10.42,4.31c.59.59,1.63.6,2.23,0,.83-.83,1.73-1.52,2.69-2.11h0c5.68-3.5,13.23-2.81,18.14,2.11.59.6,1.64.6,2.23,0,2.78-2.78,6.48-4.31,10.41-4.31s7.63,1.53,10.42,4.31c.59.6,1.64.6,2.23,0l.19-.19c5.56-5.56,14.35-5.79,20.19-.61l-9.01,9.64Z"/>
          <path class="cls-4" d="M1314.88,60.21c-5.65-5.65-14.84-5.65-20.49,0l-16.35,16.35c-5.65,5.65-5.65,14.84,0,20.49,2.82,2.82,6.53,4.24,10.24,4.24s7.42-1.41,10.24-4.24l16.35-16.35c2.74-2.74,4.24-6.37,4.24-10.24s-1.51-7.51-4.24-10.24Z"/>
          <path class="cls-4" d="M1298.52,97.05l16.35-16.35c2.74-2.74,4.24-6.37,4.24-10.24s-1.51-7.51-4.24-10.24h0c-5.65-5.65-14.84-5.65-20.49,0l-16.35,16.35c-5.65,5.65-5.65,14.84,0,20.49,2.82,2.82,6.53,4.24,10.24,4.24s7.42-1.41,10.24-4.24ZM1313.78,61.31h0c2.44,2.44,3.79,5.69,3.79,9.15s-1.35,6.7-3.79,9.15l-16.35,16.35c-5.04,5.04-13.25,5.04-18.3,0-5.04-5.04-5.04-13.25,0-18.3l16.35-16.35c2.52-2.52,5.84-3.78,9.15-3.78s6.63,1.26,9.15,3.78Z"/>
          <path class="cls-1" d="M1309.88,55.21c-5.65-5.65-14.84-5.65-20.49,0l-16.35,16.35c-5.65,5.65-5.65,14.84,0,20.49,2.82,2.82,6.53,4.24,10.24,4.24s7.42-1.41,10.24-4.24l16.35-16.35c2.74-2.74,4.24-6.37,4.24-10.24s-1.51-7.51-4.24-10.24Z"/>
          <path class="cls-4" d="M1293.52,92.05l16.35-16.35c2.74-2.74,4.24-6.37,4.24-10.24s-1.51-7.51-4.24-10.24h0c-5.65-5.65-14.84-5.65-20.49,0l-16.35,16.35c-5.65,5.65-5.65,14.84,0,20.49,2.82,2.82,6.53,4.24,10.24,4.24s7.42-1.41,10.24-4.24ZM1308.78,56.31h0c2.44,2.44,3.79,5.69,3.79,9.15s-1.35,6.7-3.79,9.15l-16.35,16.35c-5.04,5.04-13.25,5.04-18.3,0-5.04-5.04-5.04-13.25,0-18.3l16.35-16.35c2.52-2.52,5.84-3.78,9.15-3.78s6.63,1.26,9.15,3.78Z"/>
          <path class="cls-4" d="M1089.3-8.75h119.83c4.41,0,7.99,3.58,7.99,7.99v1.81c0,4.41-3.58,7.99-7.99,7.99h-119.83c-4.41,0-7.99-3.58-7.99-7.99V-.76c0-4.41,3.58-7.99,7.99-7.99Z" transform="translate(336.46 812.62) rotate(-45)"/>
          <path class="cls-4" d="M1114.13,48.51l83.45-83.45c3.66-3.66,3.66-9.62,0-13.28-1.77-1.77-4.13-2.75-6.64-2.75s-4.87.98-6.64,2.75l-83.45,83.45c-3.66,3.66-3.66,9.62,0,13.28h0c1.77,1.77,4.13,2.75,6.64,2.75s4.87-.98,6.64-2.75ZM1101.56,47.8c-3.27-3.27-3.27-8.59,0-11.87l83.45-83.45c3.27-3.27,8.59-3.27,11.87,0,3.27,3.27,3.27,8.59,0,11.87l-83.45,83.45c-3.27,3.27-8.59,3.27-11.87,0h0Z"/>
          <path class="cls-13" d="M1086.06-11.99h119.83c4.41,0,7.99,3.58,7.99,7.99v1.81c0,4.41-3.58,7.99-7.99,7.99h-119.83c-4.41,0-7.99-3.58-7.99-7.99v-1.81c0-4.41,3.58-7.99,7.99-7.99Z" transform="translate(337.8 809.38) rotate(-45)"/>
          <path class="cls-4" d="M1110.89,45.27l83.45-83.45c3.66-3.66,3.66-9.62,0-13.28-1.77-1.77-4.13-2.75-6.64-2.75s-4.87.98-6.64,2.75l-83.45,83.45c-3.66,3.66-3.66,9.62,0,13.28h0c1.77,1.77,4.13,2.75,6.64,2.75s4.87-.98,6.64-2.75ZM1098.32,44.56c-3.27-3.27-3.27-8.59,0-11.87l83.45-83.45c3.27-3.27,8.59-3.27,11.87,0,3.27,3.27,3.27,8.59,0,11.87l-83.45,83.45c-3.27,3.27-8.59,3.27-11.87,0h0Z"/>
          <path class="cls-4" d="M1053.75,168.05h119.83c4.41,0,7.99,3.58,7.99,7.99v1.81c0,4.41-3.58,7.99-7.99,7.99h-119.83c-4.41,0-7.99-3.58-7.99-7.99v-1.81c0-4.41,3.58-7.99,7.99-7.99Z" transform="translate(201.05 839.28) rotate(-45)"/>
          <path class="cls-4" d="M1078.58,225.31l83.45-83.45c3.66-3.66,3.66-9.62,0-13.28-1.77-1.77-4.13-2.75-6.64-2.75s-4.87.98-6.64,2.75l-83.45,83.45c-3.66,3.66-3.66,9.62,0,13.28h0c1.77,1.77,4.13,2.75,6.64,2.75s4.87-.98,6.64-2.75ZM1066.01,224.6c-3.27-3.27-3.27-8.59,0-11.87l83.45-83.45c3.27-3.27,8.59-3.27,11.87,0,3.27,3.27,3.27,8.59,0,11.87l-83.45,83.45c-3.27,3.27-8.59,3.27-11.87,0h0Z"/>
          <path class="cls-2" d="M1050.51,164.8h119.83c4.41,0,7.99,3.58,7.99,7.99v1.81c0,4.41-3.58,7.99-7.99,7.99h-119.83c-4.41,0-7.99-3.58-7.99-7.99v-1.81c0-4.41,3.58-7.99,7.99-7.99Z" transform="translate(202.4 836.04) rotate(-45)"/>
          <path class="cls-4" d="M1075.34,222.06l83.45-83.45c3.66-3.66,3.66-9.62,0-13.28-1.77-1.77-4.13-2.75-6.64-2.75s-4.87.98-6.64,2.75l-83.45,83.45c-3.66,3.66-3.66,9.62,0,13.28h0c1.77,1.77,4.13,2.75,6.64,2.75s4.87-.98,6.64-2.75ZM1062.76,221.35c-3.27-3.27-3.27-8.59,0-11.87l83.45-83.45c3.27-3.27,8.59-3.27,11.87,0,3.27,3.27,3.27,8.59,0,11.87l-83.45,83.45c-3.27,3.27-8.59,3.27-11.87,0h0Z"/>
          <path class="cls-4" d="M751.51,3.2c0,1.67-1.35,3.02-3.02,3.02s-3.02-1.35-3.02-3.02,1.35-3.02,3.02-3.02,3.02,1.35,3.02,3.02Z"/>
          <path class="cls-4" d="M772.27,3.2c0,1.67-1.35,3.02-3.02,3.02s-3.02-1.35-3.02-3.02,1.35-3.02,3.02-3.02,3.02,1.35,3.02,3.02Z"/>
          <path class="cls-4" d="M793.02,3.2c0,1.67-1.35,3.02-3.02,3.02s-3.02-1.35-3.02-3.02,1.35-3.02,3.02-3.02,3.02,1.35,3.02,3.02Z"/>
          <path class="cls-4" d="M813.78,3.2c0,1.67-1.35,3.02-3.02,3.02s-3.02-1.35-3.02-3.02,1.35-3.02,3.02-3.02,3.02,1.35,3.02,3.02Z"/>
          <g>
            <path class="cls-4" d="M1268.78,161.25c0,1.67-1.35,3.02-3.02,3.02s-3.02-1.35-3.02-3.02,1.35-3.02,3.02-3.02,3.02,1.35,3.02,3.02Z"/>
            <path class="cls-4" d="M1268.78,174.47c0,1.67-1.35,3.02-3.02,3.02s-3.02-1.35-3.02-3.02,1.35-3.02,3.02-3.02,3.02,1.35,3.02,3.02Z"/>
          </g>
          <g>
            <path class="cls-4" d="M1289.53,161.25c0,1.67-1.35,3.02-3.02,3.02s-3.02-1.35-3.02-3.02,1.35-3.02,3.02-3.02,3.02,1.35,3.02,3.02Z"/>
            <circle class="cls-4" cx="1286.51" cy="174.47" r="3.02"/>
          </g>
          <g>
            <path class="cls-4" d="M1310.29,161.25c0,1.67-1.35,3.02-3.02,3.02s-3.02-1.35-3.02-3.02,1.35-3.02,3.02-3.02,3.02,1.35,3.02,3.02Z"/>
            <path class="cls-4" d="M1310.29,174.47c0,1.67-1.35,3.02-3.02,3.02s-3.02-1.35-3.02-3.02,1.35-3.02,3.02-3.02,3.02,1.35,3.02,3.02Z"/>
          </g>
          <g>
            <path class="cls-4" d="M1331.05,161.25c0,1.67-1.35,3.02-3.02,3.02s-3.02-1.35-3.02-3.02,1.35-3.02,3.02-3.02,3.02,1.35,3.02,3.02Z"/>
            <path class="cls-4" d="M1331.05,174.47c0,1.67-1.35,3.02-3.02,3.02s-3.02-1.35-3.02-3.02,1.35-3.02,3.02-3.02,3.02,1.35,3.02,3.02Z"/>
          </g>
          <polygon class="cls-4" points="693.1 116.73 675.15 116.73 675.15 98.78 665.98 98.78 665.98 116.73 648.04 116.73 648.04 125.9 665.98 125.9 665.98 143.85 675.15 143.85 675.15 125.9 693.1 125.9 693.1 116.73"/>
          <path class="cls-4" d="M675.78,143.85v-17.32h17.32c.35,0,.63-.28.63-.63v-9.17c0-.35-.28-.63-.63-.63h-17.32v-17.32c0-.35-.28-.63-.63-.63h-9.17c-.35,0-.63.28-.63.63v17.32h-17.32c-.35,0-.63.28-.63.63v9.17c0,.35.28.63.63.63h17.32v17.32c0,.35.28.63.63.63h9.17c.35,0,.63-.28.63-.63ZM666.61,125.9c0-.35-.28-.63-.63-.63h-17.32v-7.92h17.32c.35,0,.63-.28.63-.63v-17.32h7.92v17.32c0,.35.28.63.63.63h17.32v7.92h-17.32c-.35,0-.63.28-.63.63v17.32h-7.92v-17.32Z"/>
          <polygon class="cls-4" points="1233.65 24.88 1215.7 24.88 1215.7 6.93 1206.53 6.93 1206.53 24.88 1188.58 24.88 1188.58 34.05 1206.53 34.05 1206.53 52 1215.7 52 1215.7 34.05 1233.65 34.05 1233.65 24.88"/>
          <path class="cls-4" d="M1216.33,52v-17.32h17.32c.35,0,.63-.28.63-.63v-9.17c0-.35-.28-.63-.63-.63h-17.32V6.93c0-.35-.28-.63-.63-.63h-9.17c-.35,0-.63.28-.63.63v17.32h-17.32c-.35,0-.63.28-.63.63v9.17c0,.35.28.63.63.63h17.32v17.32c0,.35.28.63.63.63h9.17c.35,0,.63-.28.63-.63ZM1207.15,34.05c0-.35-.28-.63-.63-.63h-17.32v-7.92h17.32c.35,0,.63-.28.63-.63V7.55h7.92v17.32c0,.35.28.63.63.63h17.32v7.92h-17.32c-.35,0-.63.28-.63.63v17.32h-7.92v-17.32Z"/>
          <polygon class="cls-2" points="689.96 113.59 672.02 113.59 672.02 95.64 662.85 95.64 662.85 113.59 644.9 113.59 644.9 122.76 662.85 122.76 662.85 140.71 672.02 140.71 672.02 122.76 689.96 122.76 689.96 113.59"/>
          <path class="cls-4" d="M672.64,140.71v-17.32h17.32c.35,0,.63-.28.63-.63v-9.17c0-.35-.28-.63-.63-.63h-17.32v-17.32c0-.35-.28-.63-.63-.63h-9.17c-.35,0-.63.28-.63.63v17.32h-17.32c-.35,0-.63.28-.63.63v9.17c0,.35.28.63.63.63h17.32v17.32c0,.35.28.63.63.63h9.17c.35,0,.63-.28.63-.63ZM663.47,122.76c0-.35-.28-.63-.63-.63h-17.32v-7.92h17.32c.35,0,.63-.28.63-.63v-17.32h7.92v17.32c0,.35.28.63.63.63h17.32v7.92h-17.32c-.35,0-.63.28-.63.63v17.32h-7.92v-17.32Z"/>
          <polygon class="cls-2" points="1230.51 21.74 1212.56 21.74 1212.56 3.79 1203.39 3.79 1203.39 21.74 1185.44 21.74 1185.44 30.91 1203.39 30.91 1203.39 48.86 1212.56 48.86 1212.56 30.91 1230.51 30.91 1230.51 21.74"/>
          <path class="cls-4" d="M1213.19,48.86v-17.32h17.32c.35,0,.63-.28.63-.63v-9.17c0-.35-.28-.63-.63-.63h-17.32V3.79c0-.35-.28-.63-.63-.63h-9.17c-.35,0-.63.28-.63.63v17.32h-17.32c-.35,0-.63.28-.63.63v9.17c0,.35.28.63.63.63h17.32v17.32c0,.35.28.63.63.63h9.17c.35,0,.63-.28.63-.63ZM1204.02,30.91c0-.35-.28-.63-.63-.63h-17.32v-7.92h17.32c.35,0,.63-.28.63-.63V4.42h7.92v17.32c0,.35.28.63.63.63h17.32v7.92h-17.32c-.35,0-.63.28-.63.63v17.32h-7.92v-17.32Z"/>
          <path class="cls-13" d="M1219.04,147.08c-3.74-4-3.64-10.17.24-14.05l.13-.13c.19-.19.23-.41.23-.56s-.04-.37-.23-.56c-1.91-1.91-2.96-4.45-2.96-7.15s1.05-5.24,2.96-7.15c.31-.31.31-.81,0-1.12-3.94-3.94-3.94-10.35,0-14.29.31-.31.31-.81,0-1.12-1.91-1.91-2.96-4.45-2.96-7.14s1.05-5.24,2.96-7.15c.31-.31.31-.81,0-1.12l-.13-.13c-3.87-3.87-3.98-10.04-.24-14.05l6.8,6.36c-.29.31-.29.8.02,1.11l.13.13c1.91,1.91,2.96,4.45,2.96,7.14s-1.05,5.24-2.96,7.14c-.31.31-.31.81,0,1.13,1.91,1.91,2.96,4.45,2.96,7.14s-1.05,5.24-2.96,7.14c-.31.31-.31.81,0,1.12,1.91,1.91,2.96,4.45,2.96,7.14s-1.05,5.24-2.96,7.15c-.31.31-.31.81,0,1.12,1.91,1.91,2.96,4.45,2.96,7.15s-1.05,5.24-2.96,7.15l-.13.13c-.3.3-.31.79-.02,1.1l-6.8,6.36Z"/>
          <path class="cls-4" d="M1212.55,148.23l6.8-6.36c.1-.09.16-.22.16-.36,0-.14-.05-.27-.14-.37-.1-.11-.1-.28,0-.38l.13-.13c2.01-2.01,3.11-4.67,3.11-7.51s-1.1-5.5-3.11-7.51c-.11-.11-.11-.28,0-.39,2.01-2.01,3.11-4.67,3.11-7.51s-1.1-5.5-3.11-7.51c-.11-.11-.11-.28,0-.39,2.01-2.01,3.11-4.67,3.11-7.51s-1.1-5.5-3.11-7.51c-.11-.11-.11-.28,0-.39,2.01-2.01,3.11-4.67,3.11-7.51s-1.1-5.5-3.11-7.51l-.13-.13c-.11-.11-.11-.27,0-.39.09-.1.14-.23.14-.37s-.06-.27-.16-.36l-6.8-6.36c-.21-.19-.54-.18-.73.02-3.93,4.21-3.82,10.69.25,14.76l.13.13c.11.11.11.28,0,.39-2.01,2.01-3.11,4.67-3.11,7.51s1.1,5.5,3.11,7.51c.11.11.11.28,0,.39-2,2-3.11,4.67-3.11,7.51s1.1,5.51,3.11,7.51c.05.05.08.12.08.2s-.03.14-.08.2c-2.01,2.01-3.11,4.67-3.11,7.51s1.1,5.5,3.11,7.51c.03.03.08.09.08.2,0,.12-.06.17-.08.19l-.13.13c-4.07,4.07-4.18,10.56-.25,14.76.09.1.22.16.36.16,0,0,.01,0,.02,0,.13,0,.26-.05.35-.14ZM1218.34,78.59c-.17.46-.07,1,.31,1.38l.13.13c1.81,1.81,2.81,4.22,2.81,6.78s-1,4.97-2.81,6.78c-.51.51-.51,1.34,0,1.86,1.81,1.81,2.81,4.22,2.81,6.78s-1,4.97-2.81,6.78c-.51.51-.51,1.34,0,1.86,1.81,1.81,2.81,4.22,2.81,6.78s-1,4.97-2.81,6.78c-.51.51-.51,1.34,0,1.86,1.81,1.81,2.81,4.22,2.81,6.78s-1,4.97-2.81,6.78l-.13.13c-.37.37-.47.91-.3,1.37l-6.11,5.71c-3.2-3.8-2.99-9.39.57-12.94l.13-.13c.25-.25.38-.57.38-.92s-.14-.68-.38-.93c-1.81-1.81-2.81-4.22-2.81-6.78s1-4.97,2.81-6.78c.25-.25.38-.58.38-.93s-.14-.68-.38-.93c-1.81-1.81-2.8-4.22-2.8-6.78s1-4.97,2.8-6.78c.51-.51.51-1.34,0-1.86-1.81-1.81-2.81-4.22-2.81-6.78s1-4.97,2.81-6.78c.51-.51.51-1.34,0-1.86l-.13-.13c-3.55-3.55-3.76-9.14-.57-12.94l6.11,5.71Z"/>
          <path class="cls-1" d="M791.54-2.56h119.83c4.41,0,7.99,3.58,7.99,7.99v1.81c0,4.41-3.58,7.99-7.99,7.99h-119.83c-4.41,0-7.99-3.58-7.99-7.99v-1.81c0-4.41,3.58-7.99,7.99-7.99Z" transform="translate(244.94 603.95) rotate(-45)"/>
          <path class="cls-4" d="M816.37,54.7l83.45-83.45c1.77-1.77,2.75-4.13,2.75-6.64s-.98-4.87-2.75-6.64h0c-1.77-1.77-4.13-2.75-6.64-2.75s-4.87.98-6.64,2.75l-83.45,83.45c-1.77,1.77-2.75,4.13-2.75,6.64s.98,4.87,2.75,6.64c1.77,1.77,4.13,2.75,6.64,2.75s4.87-.98,6.64-2.75ZM899.11-41.33c1.58,1.58,2.46,3.69,2.46,5.93s-.87,4.35-2.46,5.93l-83.45,83.45c-1.58,1.58-3.69,2.46-5.93,2.46s-4.35-.87-5.93-2.46c-1.58-1.58-2.46-3.69-2.46-5.93s.87-4.35,2.46-5.93l83.45-83.45c1.64-1.64,3.78-2.45,5.93-2.45s4.3.82,5.93,2.45Z"/>
          <g>
            <path class="cls-13" d="M1544.41,56.78l-.19.19c-.59.6-1.63.6-2.23,0-2.78-2.78-6.48-4.31-10.42-4.31s-7.63,1.53-10.41,4.31c-.59.6-1.64.6-2.23,0-4.92-4.92-12.47-5.61-18.14-2.11h0c-.95.59-1.86,1.28-2.69,2.11-.6.6-1.64.59-2.23,0-2.78-2.78-6.48-4.31-10.42-4.31s-7.63,1.53-10.42,4.32c-.38.38-.82.46-1.11.46-.42,0-.81-.16-1.11-.46l-.2-.2c-5.56-5.55-14.35-5.79-20.19-.6l9.01,9.64c.6-.34,1.36-.25,1.87.26l.2.2c2.78,2.78,6.48,4.31,10.41,4.31s7.63-1.53,10.42-4.31c.59-.6,1.63-.6,2.23,0,2.78,2.78,6.48,4.31,10.42,4.31,1.3,0,2.57-.18,3.8-.51h0c2.48-.66,4.75-1.94,6.62-3.8.62-.61,1.62-.61,2.23,0,2.78,2.78,6.48,4.31,10.42,4.31s7.63-1.53,10.42-4.31c.3-.3.69-.46,1.12-.46s.82.16,1.11.46c2.78,2.78,6.48,4.31,10.41,4.31s7.63-1.53,10.41-4.31l.19-.19c.51-.51,1.27-.6,1.88-.27l9.01-9.64c-5.84-5.19-14.63-4.95-20.19.61Z"/>
            <path class="cls-4" d="M1565.42,55.87c-6.14-5.74-15.61-5.58-21.55.36l-.19.19c-.3.3-.83.3-1.14,0-2.93-2.93-6.82-4.54-10.96-4.54s-8.03,1.61-10.96,4.54c-.31.31-.82.31-1.14,0-5.06-5.06-12.77-5.87-18.69-2.46h0c-1.15.66-2.25,1.47-3.23,2.46-.31.31-.82.31-1.14,0-2.93-2.93-6.82-4.54-10.96-4.54s-8.03,1.61-10.96,4.54c-.16.16-.35.23-.57.23-.15,0-.37-.04-.56-.23l-.2-.2c-5.94-5.94-15.41-6.1-21.55-.36l-.28.26,10.04,10.74.28-.26c.32-.3.81-.29,1.11.01l.2.2c2.93,2.93,6.82,4.54,10.96,4.54s8.03-1.61,10.96-4.54c.31-.31.82-.31,1.14,0,2.93,2.93,6.82,4.54,10.96,4.54,1.3,0,2.57-.18,3.8-.49h0c2.69-.67,5.15-2.05,7.16-4.05.31-.31.82-.31,1.14,0,2.93,2.93,6.82,4.54,10.96,4.54s8.03-1.61,10.96-4.54c.31-.31.82-.31,1.14,0,2.93,2.93,6.82,4.54,10.96,4.54s8.03-1.61,10.96-4.54l.19-.19c.31-.31.8-.32,1.12-.02l.28.26,10.04-10.74-.28-.26ZM1555.59,65.82c-.6-.33-1.37-.24-1.88.27l-.19.19c-2.78,2.78-6.48,4.31-10.41,4.31s-7.63-1.53-10.41-4.31c-.3-.3-.69-.46-1.11-.46s-.82.16-1.12.46c-2.78,2.78-6.48,4.31-10.42,4.31s-7.63-1.53-10.42-4.31c-.61-.61-1.61-.61-2.23,0-1.86,1.86-4.14,3.15-6.62,3.81h0c-1.23.32-2.5.51-3.8.51-3.93,0-7.63-1.53-10.42-4.31-.59-.6-1.64-.6-2.23,0-2.78,2.78-6.48,4.31-10.42,4.31s-7.63-1.53-10.41-4.31l-.2-.2c-.51-.51-1.27-.6-1.87-.26l-9.01-9.64c5.84-5.19,14.63-4.95,20.19.6l.2.2c.29.29.69.46,1.11.46.3,0,.73-.08,1.11-.46,2.78-2.78,6.48-4.32,10.42-4.32s7.63,1.53,10.42,4.31c.59.59,1.63.6,2.23,0,.83-.83,1.73-1.52,2.69-2.11h0c5.68-3.5,13.23-2.81,18.14,2.11.59.6,1.64.6,2.23,0,2.78-2.78,6.48-4.31,10.41-4.31s7.63,1.53,10.42,4.31c.59.6,1.64.6,2.23,0l.19-.19c5.56-5.56,14.35-5.79,20.19-.61l-9.01,9.64Z"/>
            <g>
              <path class="cls-4" d="M1624.85.68h119.83c4.41,0,7.99,3.58,7.99,7.99v1.81c0,4.41-3.58,7.99-7.99,7.99h-119.83c-4.41,0-7.99-3.58-7.99-7.99v-1.81c0-4.41,3.58-7.99,7.99-7.99Z" transform="translate(486.75 1194.18) rotate(-45)"/>
              <path class="cls-4" d="M1649.69,57.94l83.45-83.45c1.77-1.77,2.75-4.13,2.75-6.64s-.98-4.87-2.75-6.64h0c-1.77-1.77-4.13-2.75-6.64-2.75s-4.87.98-6.64,2.75l-83.45,83.45c-1.77,1.77-2.75,4.13-2.75,6.64s.98,4.87,2.75,6.64c1.77,1.77,4.13,2.75,6.64,2.75s4.87-.98,6.64-2.75ZM1732.43-38.09c1.58,1.58,2.46,3.69,2.46,5.93s-.87,4.35-2.46,5.93l-83.45,83.45c-1.58,1.58-3.69,2.46-5.93,2.46s-4.35-.87-5.93-2.46c-1.58-1.58-2.46-3.69-2.46-5.93s.87-4.35,2.46-5.93l83.45-83.45c1.64-1.64,3.78-2.45,5.93-2.45s4.3.82,5.93,2.45Z"/>
            </g>
          </g>
          <g>
            <path class="cls-4" d="M451.05,60.21c-5.65-5.65-14.84-5.65-20.49,0l-16.35,16.35c-5.65,5.65-5.65,14.84,0,20.49,2.82,2.82,6.53,4.24,10.24,4.24s7.42-1.41,10.24-4.24l16.35-16.35c2.74-2.74,4.24-6.37,4.24-10.24s-1.51-7.51-4.24-10.24Z"/>
            <path class="cls-4" d="M434.69,97.05l16.35-16.35c2.74-2.74,4.24-6.37,4.24-10.24s-1.51-7.51-4.24-10.24h0c-5.65-5.65-14.84-5.65-20.49,0l-16.35,16.35c-5.65,5.65-5.65,14.84,0,20.49,2.82,2.82,6.53,4.24,10.24,4.24s7.42-1.41,10.24-4.24ZM449.95,61.31h0c2.44,2.44,3.79,5.69,3.79,9.15s-1.35,6.7-3.79,9.15l-16.35,16.35c-5.04,5.04-13.25,5.04-18.3,0-5.04-5.04-5.04-13.25,0-18.3l16.35-16.35c2.52-2.52,5.84-3.78,9.15-3.78s6.63,1.26,9.15,3.78Z"/>
          </g>
          <g>
            <path class="cls-1" d="M446.05,55.21c-5.65-5.65-14.84-5.65-20.49,0l-16.35,16.35c-5.65,5.65-5.65,14.84,0,20.49,2.82,2.82,6.53,4.24,10.24,4.24s7.42-1.41,10.24-4.24l16.35-16.35c2.74-2.74,4.24-6.37,4.24-10.24s-1.51-7.51-4.24-10.24Z"/>
            <path class="cls-4" d="M429.69,92.05l16.35-16.35c2.74-2.74,4.24-6.37,4.24-10.24s-1.51-7.51-4.24-10.24h0c-5.65-5.65-14.84-5.65-20.49,0l-16.35,16.35c-5.65,5.65-5.65,14.84,0,20.49,2.82,2.82,6.53,4.24,10.24,4.24s7.42-1.41,10.24-4.24ZM444.95,56.31h0c2.44,2.44,3.79,5.69,3.79,9.15s-1.35,6.7-3.79,9.15l-16.35,16.35c-5.04,5.04-13.25,5.04-18.3,0-5.04-5.04-5.04-13.25,0-18.3l16.35-16.35c2.52-2.52,5.84-3.78,9.15-3.78s6.63,1.26,9.15,3.78Z"/>
          </g>
          <g>
            <path class="cls-4" d="M225.47-8.75h119.83c4.41,0,7.99,3.58,7.99,7.99v1.81c0,4.41-3.58,7.99-7.99,7.99h-119.83c-4.41,0-7.99-3.58-7.99-7.99V-.76c0-4.41,3.58-7.99,7.99-7.99Z" transform="translate(83.48 201.83) rotate(-45)"/>
            <path class="cls-4" d="M250.3,48.51l83.45-83.45c3.66-3.66,3.66-9.62,0-13.28-1.77-1.77-4.13-2.75-6.64-2.75s-4.87.98-6.64,2.75l-83.45,83.45c-3.66,3.66-3.66,9.62,0,13.28h0c1.77,1.77,4.13,2.75,6.64,2.75s4.87-.98,6.64-2.75ZM237.73,47.8c-3.27-3.27-3.27-8.59,0-11.87l83.45-83.45c3.27-3.27,8.59-3.27,11.87,0,3.27,3.27,3.27,8.59,0,11.87l-83.45,83.45c-3.27,3.27-8.59,3.27-11.87,0h0Z"/>
          </g>
          <g>
            <path class="cls-13" d="M222.23-11.99h119.83c4.41,0,7.99,3.58,7.99,7.99v1.81c0,4.41-3.58,7.99-7.99,7.99h-119.83c-4.41,0-7.99-3.58-7.99-7.99v-1.81c0-4.41,3.58-7.99,7.99-7.99Z" transform="translate(84.82 198.59) rotate(-45)"/>
            <path class="cls-4" d="M247.06,45.27l83.45-83.45c3.66-3.66,3.66-9.62,0-13.28-1.77-1.77-4.13-2.75-6.64-2.75s-4.87.98-6.64,2.75L233.78,31.98c-3.66,3.66-3.66,9.62,0,13.28h0c1.77,1.77,4.13,2.75,6.64,2.75s4.87-.98,6.64-2.75ZM234.49,44.56c-3.27-3.27-3.27-8.59,0-11.87l83.45-83.45c3.27-3.27,8.59-3.27,11.87,0,3.27,3.27,3.27,8.59,0,11.87l-83.45,83.45c-3.27,3.27-8.59,3.27-11.87,0h0Z"/>
          </g>
          <g>
            <path class="cls-4" d="M189.92,168.05h119.83c4.41,0,7.99,3.58,7.99,7.99v1.81c0,4.41-3.58,7.99-7.99,7.99h-119.83c-4.41,0-7.99-3.58-7.99-7.99v-1.81c0-4.41,3.58-7.99,7.99-7.99Z" transform="translate(-51.94 228.48) rotate(-45)"/>
            <path class="cls-4" d="M214.75,225.31l83.45-83.45c3.66-3.66,3.66-9.62,0-13.28-1.77-1.77-4.13-2.75-6.64-2.75s-4.87.98-6.64,2.75l-83.45,83.45c-3.66,3.66-3.66,9.62,0,13.28h0c1.77,1.77,4.13,2.75,6.64,2.75s4.87-.98,6.64-2.75ZM202.18,224.6c-3.27-3.27-3.27-8.59,0-11.87l83.45-83.45c3.27-3.27,8.59-3.27,11.87,0,3.27,3.27,3.27,8.59,0,11.87l-83.45,83.45c-3.27,3.27-8.59,3.27-11.87,0h0Z"/>
          </g>
          <g>
            <path class="cls-2" d="M186.68,164.8h119.83c4.41,0,7.99,3.58,7.99,7.99v1.81c0,4.41-3.58,7.99-7.99,7.99h-119.83c-4.41,0-7.99-3.58-7.99-7.99v-1.81c0-4.41,3.58-7.99,7.99-7.99Z" transform="translate(-50.6 225.23) rotate(-45)"/>
            <path class="cls-4" d="M211.51,222.06l83.45-83.45c3.66-3.66,3.66-9.62,0-13.28-1.77-1.77-4.13-2.75-6.64-2.75s-4.87.98-6.64,2.75l-83.45,83.45c-3.66,3.66-3.66,9.62,0,13.28h0c1.77,1.77,4.13,2.75,6.64,2.75s4.87-.98,6.64-2.75ZM198.93,221.35c-3.27-3.27-3.27-8.59,0-11.87l83.45-83.45c3.27-3.27,8.59-3.27,11.87,0,3.27,3.27,3.27,8.59,0,11.87l-83.45,83.45c-3.27,3.27-8.59,3.27-11.87,0h0Z"/>
          </g>
          <g>
            <path class="cls-4" d="M1581.58,3.2c0,1.67-1.35,3.02-3.02,3.02s-3.02-1.35-3.02-3.02,1.35-3.02,3.02-3.02,3.02,1.35,3.02,3.02Z"/>
            <path class="cls-4" d="M1602.34,3.2c0,1.67-1.35,3.02-3.02,3.02s-3.02-1.35-3.02-3.02,1.35-3.02,3.02-3.02,3.02,1.35,3.02,3.02Z"/>
            <path class="cls-4" d="M1623.1,3.2c0,1.67-1.35,3.02-3.02,3.02s-3.02-1.35-3.02-3.02,1.35-3.02,3.02-3.02,3.02,1.35,3.02,3.02Z"/>
            <path class="cls-4" d="M1643.86,3.2c0,1.67-1.35,3.02-3.02,3.02s-3.02-1.35-3.02-3.02,1.35-3.02,3.02-3.02,3.02,1.35,3.02,3.02Z"/>
          </g>
          <g>
            <g>
              <path class="cls-4" d="M404.95,161.25c0,1.67-1.35,3.02-3.02,3.02s-3.02-1.35-3.02-3.02,1.35-3.02,3.02-3.02,3.02,1.35,3.02,3.02Z"/>
              <path class="cls-4" d="M404.95,174.47c0,1.67-1.35,3.02-3.02,3.02s-3.02-1.35-3.02-3.02,1.35-3.02,3.02-3.02,3.02,1.35,3.02,3.02Z"/>
            </g>
            <g>
              <path class="cls-4" d="M425.7,161.25c0,1.67-1.35,3.02-3.02,3.02s-3.02-1.35-3.02-3.02,1.35-3.02,3.02-3.02,3.02,1.35,3.02,3.02Z"/>
              <circle class="cls-4" cx="422.68" cy="174.47" r="3.02"/>
            </g>
            <g>
              <path class="cls-4" d="M446.46,161.25c0,1.67-1.35,3.02-3.02,3.02s-3.02-1.35-3.02-3.02,1.35-3.02,3.02-3.02,3.02,1.35,3.02,3.02Z"/>
              <path class="cls-4" d="M446.46,174.47c0,1.67-1.35,3.02-3.02,3.02s-3.02-1.35-3.02-3.02,1.35-3.02,3.02-3.02,3.02,1.35,3.02,3.02Z"/>
            </g>
            <g>
              <path class="cls-4" d="M467.22,161.25c0,1.67-1.35,3.02-3.02,3.02s-3.02-1.35-3.02-3.02,1.35-3.02,3.02-3.02,3.02,1.35,3.02,3.02Z"/>
              <path class="cls-4" d="M467.22,174.47c0,1.67-1.35,3.02-3.02,3.02s-3.02-1.35-3.02-3.02,1.35-3.02,3.02-3.02,3.02,1.35,3.02,3.02Z"/>
            </g>
          </g>
          <g>
            <polygon class="cls-4" points="1546.96 116.73 1529.01 116.73 1529.01 98.78 1519.84 98.78 1519.84 116.73 1501.89 116.73 1501.89 125.9 1519.84 125.9 1519.84 143.85 1529.01 143.85 1529.01 125.9 1546.96 125.9 1546.96 116.73"/>
            <path class="cls-4" d="M1529.63,143.85v-17.32h17.32c.35,0,.63-.28.63-.63v-9.17c0-.35-.28-.63-.63-.63h-17.32v-17.32c0-.35-.28-.63-.63-.63h-9.17c-.35,0-.63.28-.63.63v17.32h-17.32c-.35,0-.63.28-.63.63v9.17c0,.35.28.63.63.63h17.32v17.32c0,.35.28.63.63.63h9.17c.35,0,.63-.28.63-.63ZM1520.46,125.9c0-.35-.28-.63-.63-.63h-17.32v-7.92h17.32c.35,0,.63-.28.63-.63v-17.32h7.92v17.32c0,.35.28.63.63.63h17.32v7.92h-17.32c-.35,0-.63.28-.63.63v17.32h-7.92v-17.32Z"/>
          </g>
          <g>
            <polygon class="cls-4" points="369.82 24.88 351.87 24.88 351.87 6.93 342.7 6.93 342.7 24.88 324.75 24.88 324.75 34.05 342.7 34.05 342.7 52 351.87 52 351.87 34.05 369.82 34.05 369.82 24.88"/>
            <path class="cls-4" d="M352.5,52v-17.32h17.32c.35,0,.63-.28.63-.63v-9.17c0-.35-.28-.63-.63-.63h-17.32V6.93c0-.35-.28-.63-.63-.63h-9.17c-.35,0-.63.28-.63.63v17.32h-17.32c-.35,0-.63.28-.63.63v9.17c0,.35.28.63.63.63h17.32v17.32c0,.35.28.63.63.63h9.17c.35,0,.63-.28.63-.63ZM343.32,34.05c0-.35-.28-.63-.63-.63h-17.32v-7.92h17.32c.35,0,.63-.28.63-.63V7.55h7.92v17.32c0,.35.28.63.63.63h17.32v7.92h-17.32c-.35,0-.63.28-.63.63v17.32h-7.92v-17.32Z"/>
          </g>
          <g>
            <polygon class="cls-2" points="1543.82 113.59 1525.87 113.59 1525.87 95.64 1516.7 95.64 1516.7 113.59 1498.75 113.59 1498.75 122.76 1516.7 122.76 1516.7 140.71 1525.87 140.71 1525.87 122.76 1543.82 122.76 1543.82 113.59"/>
            <path class="cls-4" d="M1526.5,140.71v-17.32h17.32c.35,0,.63-.28.63-.63v-9.17c0-.35-.28-.63-.63-.63h-17.32v-17.32c0-.35-.28-.63-.63-.63h-9.17c-.35,0-.63.28-.63.63v17.32h-17.32c-.35,0-.63.28-.63.63v9.17c0,.35.28.63.63.63h17.32v17.32c0,.35.28.63.63.63h9.17c.35,0,.63-.28.63-.63ZM1517.32,122.76c0-.35-.28-.63-.63-.63h-17.32v-7.92h17.32c.35,0,.63-.28.63-.63v-17.32h7.92v17.32c0,.35.28.63.63.63h17.32v7.92h-17.32c-.35,0-.63.28-.63.63v17.32h-7.92v-17.32Z"/>
          </g>
          <g>
            <polygon class="cls-2" points="366.68 21.74 348.73 21.74 348.73 3.79 339.56 3.79 339.56 21.74 321.61 21.74 321.61 30.91 339.56 30.91 339.56 48.86 348.73 48.86 348.73 30.91 366.68 30.91 366.68 21.74"/>
            <path class="cls-4" d="M349.36,48.86v-17.32h17.32c.35,0,.63-.28.63-.63v-9.17c0-.35-.28-.63-.63-.63h-17.32V3.79c0-.35-.28-.63-.63-.63h-9.17c-.35,0-.63.28-.63.63v17.32h-17.32c-.35,0-.63.28-.63.63v9.17c0,.35.28.63.63.63h17.32v17.32c0,.35.28.63.63.63h9.17c.35,0,.63-.28.63-.63ZM340.19,30.91c0-.35-.28-.63-.63-.63h-17.32v-7.92h17.32c.35,0,.63-.28.63-.63V4.42h7.92v17.32c0,.35.28.63.63.63h17.32v7.92h-17.32c-.35,0-.63.28-.63.63v17.32h-7.92v-17.32Z"/>
          </g>
          <g>
            <path class="cls-13" d="M355.2,147.08c-3.74-4-3.64-10.17.24-14.05l.13-.13c.19-.19.23-.41.23-.56s-.04-.37-.23-.56c-1.91-1.91-2.96-4.45-2.96-7.15s1.05-5.24,2.96-7.15c.31-.31.31-.81,0-1.12-3.94-3.94-3.94-10.35,0-14.29.31-.31.31-.81,0-1.12-1.91-1.91-2.96-4.45-2.96-7.14s1.05-5.24,2.96-7.15c.31-.31.31-.81,0-1.12l-.13-.13c-3.87-3.87-3.98-10.04-.24-14.05l6.8,6.36c-.29.31-.29.8.02,1.11l.13.13c1.91,1.91,2.96,4.45,2.96,7.14s-1.05,5.24-2.96,7.14c-.31.31-.31.81,0,1.13,1.91,1.91,2.96,4.45,2.96,7.14s-1.05,5.24-2.96,7.14c-.31.31-.31.81,0,1.12,1.91,1.91,2.96,4.45,2.96,7.14s-1.05,5.24-2.96,7.15c-.31.31-.31.81,0,1.12,1.91,1.91,2.96,4.45,2.96,7.15s-1.05,5.24-2.96,7.15l-.13.13c-.3.3-.31.79-.02,1.1l-6.8,6.36Z"/>
            <path class="cls-4" d="M348.72,148.23l6.8-6.36c.1-.09.16-.22.16-.36,0-.14-.05-.27-.14-.37-.1-.11-.1-.28,0-.38l.13-.13c2.01-2.01,3.11-4.67,3.11-7.51s-1.1-5.5-3.11-7.51c-.11-.11-.11-.28,0-.39,2.01-2.01,3.11-4.67,3.11-7.51s-1.1-5.5-3.11-7.51c-.11-.11-.11-.28,0-.39,2.01-2.01,3.11-4.67,3.11-7.51s-1.1-5.5-3.11-7.51c-.11-.11-.11-.28,0-.39,2.01-2.01,3.11-4.67,3.11-7.51s-1.1-5.5-3.11-7.51l-.13-.13c-.11-.11-.11-.27,0-.39.09-.1.14-.23.14-.37s-.06-.27-.16-.36l-6.8-6.36c-.21-.19-.54-.18-.73.02-3.93,4.21-3.82,10.69.25,14.76l.13.13c.11.11.11.28,0,.39-2.01,2.01-3.11,4.67-3.11,7.51s1.1,5.5,3.11,7.51c.11.11.11.28,0,.39-2,2-3.11,4.67-3.11,7.51s1.1,5.51,3.11,7.51c.05.05.08.12.08.2s-.03.14-.08.2c-2.01,2.01-3.11,4.67-3.11,7.51s1.1,5.5,3.11,7.51c.03.03.08.09.08.2,0,.12-.06.17-.08.19l-.13.13c-4.07,4.07-4.18,10.56-.25,14.76.09.1.22.16.36.16,0,0,.01,0,.02,0,.13,0,.26-.05.35-.14ZM354.51,78.59c-.17.46-.07,1,.31,1.38l.13.13c1.81,1.81,2.81,4.22,2.81,6.78s-1,4.97-2.81,6.78c-.51.51-.51,1.34,0,1.86,1.81,1.81,2.81,4.22,2.81,6.78s-1,4.97-2.81,6.78c-.51.51-.51,1.34,0,1.86,1.81,1.81,2.81,4.22,2.81,6.78s-1,4.97-2.81,6.78c-.51.51-.51,1.34,0,1.86,1.81,1.81,2.81,4.22,2.81,6.78s-1,4.97-2.81,6.78l-.13.13c-.37.37-.47.91-.3,1.37l-6.11,5.71c-3.2-3.8-2.99-9.39.57-12.94l.13-.13c.25-.25.38-.57.38-.92s-.14-.68-.38-.93c-1.81-1.81-2.81-4.22-2.81-6.78s1-4.97,2.81-6.78c.25-.25.38-.58.38-.93s-.14-.68-.38-.93c-1.81-1.81-2.8-4.22-2.8-6.78s1-4.97,2.8-6.78c.51-.51.51-1.34,0-1.86-1.81-1.81-2.81-4.22-2.81-6.78s1-4.97,2.81-6.78c.51-.51.51-1.34,0-1.86l-.13-.13c-3.55-3.55-3.76-9.14-.57-12.94l6.11,5.71Z"/>
          </g>
          <g>
            <rect class="cls-1" x="1613.63" y="-2.56" width="135.8" height="17.78" rx="7.99" ry="7.99" transform="translate(488.09 1190.93) rotate(-45)"/>
            <path class="cls-4" d="M1646.44,54.7l83.45-83.45c1.77-1.77,2.75-4.13,2.75-6.64s-.98-4.87-2.75-6.64h0c-1.77-1.77-4.13-2.75-6.64-2.75s-4.87.98-6.64,2.75l-83.45,83.45c-1.77,1.77-2.75,4.13-2.75,6.64s.98,4.87,2.75,6.64c1.77,1.77,4.13,2.75,6.64,2.75s4.87-.98,6.64-2.75ZM1729.18-41.33c1.58,1.58,2.46,3.69,2.46,5.93s-.87,4.35-2.46,5.93l-83.45,83.45c-1.58,1.58-3.69,2.46-5.93,2.46s-4.35-.87-5.93-2.46c-1.58-1.58-2.46-3.69-2.46-5.93s.87-4.35,2.46-5.93l83.45-83.45c1.64-1.64,3.78-2.45,5.93-2.45s4.3.82,5.93,2.45Z"/>
          </g>
          <path class="cls-3" d="M509.68-50.09H-256.6V220.47h811.07V-50.09h-44.79ZM-211.82,220.16h-44.48v-44.48h44.48v44.48ZM-211.82,175.07h-44.48v-44.48h44.48v44.48ZM-211.82,129.98h-44.48v-44.48h44.48v44.48ZM-211.82,84.88h-44.48v-44.48h44.48v44.48ZM-211.82,39.79h-44.48V-4.69h44.48v44.48ZM-211.82-5.3h-44.48v-44.48h44.48V-5.3ZM-166.72,220.16h-44.48v-44.48h44.48v44.48ZM-166.72,175.07h-44.48v-44.48h44.48v44.48ZM-166.72,129.98h-44.48v-44.48h44.48v44.48ZM-166.72,84.88h-44.48v-44.48h44.48v44.48ZM-166.72,39.79h-44.48V-4.69h44.48v44.48ZM-166.72-5.3h-44.48v-44.48h44.48V-5.3ZM-121.63,220.16h-44.48v-44.48h44.48v44.48ZM-121.63,175.07h-44.48v-44.48h44.48v44.48ZM-121.63,129.98h-44.48v-44.48h44.48v44.48ZM-121.63,84.88h-44.48v-44.48h44.48v44.48ZM-121.63,39.79h-44.48V-4.69h44.48v44.48ZM-121.63-5.3h-44.48v-44.48h44.48V-5.3ZM-76.54,220.16h-44.48v-44.48h44.48v44.48ZM-76.54,175.07h-44.48v-44.48h44.48v44.48ZM-76.54,129.98h-44.48v-44.48h44.48v44.48ZM-76.54,84.88h-44.48v-44.48h44.48v44.48ZM-76.54,39.79h-44.48V-4.69h44.48v44.48ZM-76.54-5.3h-44.48v-44.48h44.48V-5.3ZM-31.44,220.16h-44.48v-44.48H-31.44v44.48ZM-31.44,175.07h-44.48v-44.48H-31.44v44.48ZM-31.44,129.98h-44.48v-44.48H-31.44v44.48ZM-31.44,84.88h-44.48v-44.48H-31.44v44.48ZM-31.44,39.79h-44.48V-4.69H-31.44v44.48ZM-31.44-5.3h-44.48v-44.48H-31.44V-5.3ZM13.65,220.16H-30.83v-44.48H13.65v44.48ZM13.65,175.07H-30.83v-44.48H13.65v44.48ZM13.65,129.98H-30.83v-44.48H13.65v44.48ZM13.65,84.88H-30.83v-44.48H13.65v44.48ZM13.65,39.79H-30.83V-4.69H13.65v44.48ZM13.65-5.3H-30.83v-44.48H13.65V-5.3ZM58.44,220.16H13.96v-44.48h44.48v44.48ZM58.44,175.07H13.96v-44.48h44.48v44.48ZM58.44,129.98H13.96v-44.48h44.48v44.48ZM58.44,84.88H13.96v-44.48h44.48v44.48ZM58.44,39.79H13.96V-4.69h44.48v44.48ZM58.44-5.3H13.96v-44.48h44.48V-5.3ZM103.53,220.16h-44.48v-44.48h44.48v44.48ZM103.53,175.07h-44.48v-44.48h44.48v44.48ZM103.53,129.98h-44.48v-44.48h44.48v44.48ZM103.53,84.88h-44.48v-44.48h44.48v44.48ZM103.53,39.79h-44.48V-4.69h44.48v44.48ZM103.53-5.3h-44.48v-44.48h44.48V-5.3ZM148.62,220.16h-44.48v-44.48h44.48v44.48ZM148.62,175.07h-44.48v-44.48h44.48v44.48ZM148.62,129.98h-44.48v-44.48h44.48v44.48ZM148.62,84.88h-44.48v-44.48h44.48v44.48ZM148.62,39.79h-44.48V-4.69h44.48v44.48ZM148.62-5.3h-44.48v-44.48h44.48V-5.3ZM193.72,220.16h-44.48v-44.48h44.48v44.48ZM193.72,175.07h-44.48v-44.48h44.48v44.48ZM193.72,129.98h-44.48v-44.48h44.48v44.48ZM193.72,84.88h-44.48v-44.48h44.48v44.48ZM193.72,39.79h-44.48V-4.69h44.48v44.48ZM193.72-5.3h-44.48v-44.48h44.48V-5.3ZM238.81,220.16h-44.48v-44.48h44.48v44.48ZM238.81,175.07h-44.48v-44.48h44.48v44.48ZM238.81,129.98h-44.48v-44.48h44.48v44.48ZM238.81,84.88h-44.48v-44.48h44.48v44.48ZM238.81,39.79h-44.48V-4.69h44.48v44.48ZM238.81-5.3h-44.48v-44.48h44.48V-5.3ZM283.9,220.16h-44.48v-44.48h44.48v44.48ZM283.9,175.07h-44.48v-44.48h44.48v44.48ZM283.9,129.98h-44.48v-44.48h44.48v44.48ZM283.9,84.88h-44.48v-44.48h44.48v44.48ZM283.9,39.79h-44.48V-4.69h44.48v44.48ZM283.9-5.3h-44.48v-44.48h44.48V-5.3ZM328.69,220.16h-44.48v-44.48h44.48v44.48ZM328.69,175.07h-44.48v-44.48h44.48v44.48ZM328.69,129.98h-44.48v-44.48h44.48v44.48ZM328.69,84.88h-44.48v-44.48h44.48v44.48ZM328.69,39.79h-44.48V-4.69h44.48v44.48ZM328.69-5.3h-44.48v-44.48h44.48V-5.3ZM373.78,220.16h-44.48v-44.48h44.48v44.48ZM373.78,175.07h-44.48v-44.48h44.48v44.48ZM373.78,129.98h-44.48v-44.48h44.48v44.48ZM373.78,84.88h-44.48v-44.48h44.48v44.48ZM373.78,39.79h-44.48V-4.69h44.48v44.48ZM373.78-5.3h-44.48v-44.48h44.48V-5.3ZM418.88,220.16h-44.48v-44.48h44.48v44.48ZM418.88,175.07h-44.48v-44.48h44.48v44.48ZM418.88,129.98h-44.48v-44.48h44.48v44.48ZM418.88,84.88h-44.48v-44.48h44.48v44.48ZM418.88,39.79h-44.48V-4.69h44.48v44.48ZM418.88-5.3h-44.48v-44.48h44.48V-5.3ZM463.97,220.16h-44.48v-44.48h44.48v44.48ZM463.97,175.07h-44.48v-44.48h44.48v44.48ZM463.97,129.98h-44.48v-44.48h44.48v44.48ZM463.97,84.88h-44.48v-44.48h44.48v44.48ZM463.97,39.79h-44.48V-4.69h44.48v44.48ZM463.97-5.3h-44.48v-44.48h44.48V-5.3ZM509.06,220.16h-44.48v-44.48h44.48v44.48ZM509.06,175.07h-44.48v-44.48h44.48v44.48ZM509.06,129.98h-44.48v-44.48h44.48v44.48ZM509.06,84.88h-44.48v-44.48h44.48v44.48ZM509.06,39.79h-44.48V-4.69h44.48v44.48ZM509.06-5.3h-44.48v-44.48h44.48V-5.3ZM554.16,220.16h-44.48v-44.48h44.48v44.48ZM554.16,175.07h-44.48v-44.48h44.48v44.48ZM554.16,129.98h-44.48v-44.48h44.48v44.48ZM554.16,84.88h-44.48v-44.48h44.48v44.48ZM554.16,39.79h-44.48V-4.69h44.48v44.48ZM554.16-5.3h-44.48v-44.48h44.48V-5.3Z"/>
          <path class="cls-3" d="M2131.28-50.09h-766.28V220.47h811.07V-50.09h-44.79ZM1409.79,220.16h-44.48v-44.48h44.48v44.48ZM1409.79,175.07h-44.48v-44.48h44.48v44.48ZM1409.79,129.98h-44.48v-44.48h44.48v44.48ZM1409.79,84.88h-44.48v-44.48h44.48v44.48ZM1409.79,39.79h-44.48V-4.69h44.48v44.48ZM1409.79-5.3h-44.48v-44.48h44.48V-5.3ZM1454.88,220.16h-44.48v-44.48h44.48v44.48ZM1454.88,175.07h-44.48v-44.48h44.48v44.48ZM1454.88,129.98h-44.48v-44.48h44.48v44.48ZM1454.88,84.88h-44.48v-44.48h44.48v44.48ZM1454.88,39.79h-44.48V-4.69h44.48v44.48ZM1454.88-5.3h-44.48v-44.48h44.48V-5.3ZM1499.97,220.16h-44.48v-44.48h44.48v44.48ZM1499.97,175.07h-44.48v-44.48h44.48v44.48ZM1499.97,129.98h-44.48v-44.48h44.48v44.48ZM1499.97,84.88h-44.48v-44.48h44.48v44.48ZM1499.97,39.79h-44.48V-4.69h44.48v44.48ZM1499.97-5.3h-44.48v-44.48h44.48V-5.3ZM1545.07,220.16h-44.48v-44.48h44.48v44.48ZM1545.07,175.07h-44.48v-44.48h44.48v44.48ZM1545.07,129.98h-44.48v-44.48h44.48v44.48ZM1545.07,84.88h-44.48v-44.48h44.48v44.48ZM1545.07,39.79h-44.48V-4.69h44.48v44.48ZM1545.07-5.3h-44.48v-44.48h44.48V-5.3ZM1590.16,220.16h-44.48v-44.48h44.48v44.48ZM1590.16,175.07h-44.48v-44.48h44.48v44.48ZM1590.16,129.98h-44.48v-44.48h44.48v44.48ZM1590.16,84.88h-44.48v-44.48h44.48v44.48ZM1590.16,39.79h-44.48V-4.69h44.48v44.48ZM1590.16-5.3h-44.48v-44.48h44.48V-5.3ZM1635.25,220.16h-44.48v-44.48h44.48v44.48ZM1635.25,175.07h-44.48v-44.48h44.48v44.48ZM1635.25,129.98h-44.48v-44.48h44.48v44.48ZM1635.25,84.88h-44.48v-44.48h44.48v44.48ZM1635.25,39.79h-44.48V-4.69h44.48v44.48ZM1635.25-5.3h-44.48v-44.48h44.48V-5.3ZM1680.04,220.16h-44.48v-44.48h44.48v44.48ZM1680.04,175.07h-44.48v-44.48h44.48v44.48ZM1680.04,129.98h-44.48v-44.48h44.48v44.48ZM1680.04,84.88h-44.48v-44.48h44.48v44.48ZM1680.04,39.79h-44.48V-4.69h44.48v44.48ZM1680.04-5.3h-44.48v-44.48h44.48V-5.3ZM1725.13,220.16h-44.48v-44.48h44.48v44.48ZM1725.13,175.07h-44.48v-44.48h44.48v44.48ZM1725.13,129.98h-44.48v-44.48h44.48v44.48ZM1725.13,84.88h-44.48v-44.48h44.48v44.48ZM1725.13,39.79h-44.48V-4.69h44.48v44.48ZM1725.13-5.3h-44.48v-44.48h44.48V-5.3ZM1770.23,220.16h-44.48v-44.48h44.48v44.48ZM1770.23,175.07h-44.48v-44.48h44.48v44.48ZM1770.23,129.98h-44.48v-44.48h44.48v44.48ZM1770.23,84.88h-44.48v-44.48h44.48v44.48ZM1770.23,39.79h-44.48V-4.69h44.48v44.48ZM1770.23-5.3h-44.48v-44.48h44.48V-5.3ZM1815.32,220.16h-44.48v-44.48h44.48v44.48ZM1815.32,175.07h-44.48v-44.48h44.48v44.48ZM1815.32,129.98h-44.48v-44.48h44.48v44.48ZM1815.32,84.88h-44.48v-44.48h44.48v44.48ZM1815.32,39.79h-44.48V-4.69h44.48v44.48ZM1815.32-5.3h-44.48v-44.48h44.48V-5.3ZM1860.41,220.16h-44.48v-44.48h44.48v44.48ZM1860.41,175.07h-44.48v-44.48h44.48v44.48ZM1860.41,129.98h-44.48v-44.48h44.48v44.48ZM1860.41,84.88h-44.48v-44.48h44.48v44.48ZM1860.41,39.79h-44.48V-4.69h44.48v44.48ZM1860.41-5.3h-44.48v-44.48h44.48V-5.3ZM1905.51,220.16h-44.48v-44.48h44.48v44.48ZM1905.51,175.07h-44.48v-44.48h44.48v44.48ZM1905.51,129.98h-44.48v-44.48h44.48v44.48ZM1905.51,84.88h-44.48v-44.48h44.48v44.48ZM1905.51,39.79h-44.48V-4.69h44.48v44.48ZM1905.51-5.3h-44.48v-44.48h44.48V-5.3ZM1950.29,220.16h-44.48v-44.48h44.48v44.48ZM1950.29,175.07h-44.48v-44.48h44.48v44.48ZM1950.29,129.98h-44.48v-44.48h44.48v44.48ZM1950.29,84.88h-44.48v-44.48h44.48v44.48ZM1950.29,39.79h-44.48V-4.69h44.48v44.48ZM1950.29-5.3h-44.48v-44.48h44.48V-5.3ZM1995.39,220.16h-44.48v-44.48h44.48v44.48ZM1995.39,175.07h-44.48v-44.48h44.48v44.48ZM1995.39,129.98h-44.48v-44.48h44.48v44.48ZM1995.39,84.88h-44.48v-44.48h44.48v44.48ZM1995.39,39.79h-44.48V-4.69h44.48v44.48ZM1995.39-5.3h-44.48v-44.48h44.48V-5.3ZM2040.48,220.16h-44.48v-44.48h44.48v44.48ZM2040.48,175.07h-44.48v-44.48h44.48v44.48ZM2040.48,129.98h-44.48v-44.48h44.48v44.48ZM2040.48,84.88h-44.48v-44.48h44.48v44.48ZM2040.48,39.79h-44.48V-4.69h44.48v44.48ZM2040.48-5.3h-44.48v-44.48h44.48V-5.3ZM2085.57,220.16h-44.48v-44.48h44.48v44.48ZM2085.57,175.07h-44.48v-44.48h44.48v44.48ZM2085.57,129.98h-44.48v-44.48h44.48v44.48ZM2085.57,84.88h-44.48v-44.48h44.48v44.48ZM2085.57,39.79h-44.48V-4.69h44.48v44.48ZM2085.57-5.3h-44.48v-44.48h44.48V-5.3ZM2130.67,220.16h-44.48v-44.48h44.48v44.48ZM2130.67,175.07h-44.48v-44.48h44.48v44.48ZM2130.67,129.98h-44.48v-44.48h44.48v44.48ZM2130.67,84.88h-44.48v-44.48h44.48v44.48ZM2130.67,39.79h-44.48V-4.69h44.48v44.48ZM2130.67-5.3h-44.48v-44.48h44.48V-5.3ZM2175.76,220.16h-44.48v-44.48h44.48v44.48ZM2175.76,175.07h-44.48v-44.48h44.48v44.48ZM2175.76,129.98h-44.48v-44.48h44.48v44.48ZM2175.76,84.88h-44.48v-44.48h44.48v44.48ZM2175.76,39.79h-44.48V-4.69h44.48v44.48ZM2175.76-5.3h-44.48v-44.48h44.48V-5.3Z"/>
          <path class="cls-3" d="M1320.75-50.09h-766.28V220.47h811.07V-50.09h-44.79ZM599.25,220.16h-44.48v-44.48h44.48v44.48ZM599.25,175.07h-44.48v-44.48h44.48v44.48ZM599.25,129.98h-44.48v-44.48h44.48v44.48ZM599.25,84.88h-44.48v-44.48h44.48v44.48ZM599.25,39.79h-44.48V-4.69h44.48v44.48ZM599.25-5.3h-44.48v-44.48h44.48V-5.3ZM644.34,220.16h-44.48v-44.48h44.48v44.48ZM644.34,175.07h-44.48v-44.48h44.48v44.48ZM644.34,129.98h-44.48v-44.48h44.48v44.48ZM644.34,84.88h-44.48v-44.48h44.48v44.48ZM644.34,39.79h-44.48V-4.69h44.48v44.48ZM644.34-5.3h-44.48v-44.48h44.48V-5.3ZM689.44,220.16h-44.48v-44.48h44.48v44.48ZM689.44,175.07h-44.48v-44.48h44.48v44.48ZM689.44,129.98h-44.48v-44.48h44.48v44.48ZM689.44,84.88h-44.48v-44.48h44.48v44.48ZM689.44,39.79h-44.48V-4.69h44.48v44.48ZM689.44-5.3h-44.48v-44.48h44.48V-5.3ZM734.53,220.16h-44.48v-44.48h44.48v44.48ZM734.53,175.07h-44.48v-44.48h44.48v44.48ZM734.53,129.98h-44.48v-44.48h44.48v44.48ZM734.53,84.88h-44.48v-44.48h44.48v44.48ZM734.53,39.79h-44.48V-4.69h44.48v44.48ZM734.53-5.3h-44.48v-44.48h44.48V-5.3ZM779.63,220.16h-44.48v-44.48h44.48v44.48ZM779.63,175.07h-44.48v-44.48h44.48v44.48ZM779.63,129.98h-44.48v-44.48h44.48v44.48ZM779.63,84.88h-44.48v-44.48h44.48v44.48ZM779.63,39.79h-44.48V-4.69h44.48v44.48ZM779.63-5.3h-44.48v-44.48h44.48V-5.3ZM824.72,220.16h-44.48v-44.48h44.48v44.48ZM824.72,175.07h-44.48v-44.48h44.48v44.48ZM824.72,129.98h-44.48v-44.48h44.48v44.48ZM824.72,84.88h-44.48v-44.48h44.48v44.48ZM824.72,39.79h-44.48V-4.69h44.48v44.48ZM824.72-5.3h-44.48v-44.48h44.48V-5.3ZM869.5,220.16h-44.48v-44.48h44.48v44.48ZM869.5,175.07h-44.48v-44.48h44.48v44.48ZM869.5,129.98h-44.48v-44.48h44.48v44.48ZM869.5,84.88h-44.48v-44.48h44.48v44.48ZM869.5,39.79h-44.48V-4.69h44.48v44.48ZM869.5-5.3h-44.48v-44.48h44.48V-5.3ZM914.6,220.16h-44.48v-44.48h44.48v44.48ZM914.6,175.07h-44.48v-44.48h44.48v44.48ZM914.6,129.98h-44.48v-44.48h44.48v44.48ZM914.6,84.88h-44.48v-44.48h44.48v44.48ZM914.6,39.79h-44.48V-4.69h44.48v44.48ZM914.6-5.3h-44.48v-44.48h44.48V-5.3ZM959.69,220.16h-44.48v-44.48h44.48v44.48ZM959.69,175.07h-44.48v-44.48h44.48v44.48ZM959.69,129.98h-44.48v-44.48h44.48v44.48ZM959.69,84.88h-44.48v-44.48h44.48v44.48ZM959.69,39.79h-44.48V-4.69h44.48v44.48ZM959.69-5.3h-44.48v-44.48h44.48V-5.3ZM1004.79,220.16h-44.48v-44.48h44.48v44.48ZM1004.79,175.07h-44.48v-44.48h44.48v44.48ZM1004.79,129.98h-44.48v-44.48h44.48v44.48ZM1004.79,84.88h-44.48v-44.48h44.48v44.48ZM1004.79,39.79h-44.48V-4.69h44.48v44.48ZM1004.79-5.3h-44.48v-44.48h44.48V-5.3ZM1049.88,220.16h-44.48v-44.48h44.48v44.48ZM1049.88,175.07h-44.48v-44.48h44.48v44.48ZM1049.88,129.98h-44.48v-44.48h44.48v44.48ZM1049.88,84.88h-44.48v-44.48h44.48v44.48ZM1049.88,39.79h-44.48V-4.69h44.48v44.48ZM1049.88-5.3h-44.48v-44.48h44.48V-5.3ZM1094.97,220.16h-44.48v-44.48h44.48v44.48ZM1094.97,175.07h-44.48v-44.48h44.48v44.48ZM1094.97,129.98h-44.48v-44.48h44.48v44.48ZM1094.97,84.88h-44.48v-44.48h44.48v44.48ZM1094.97,39.79h-44.48V-4.69h44.48v44.48ZM1094.97-5.3h-44.48v-44.48h44.48V-5.3ZM1139.76,220.16h-44.48v-44.48h44.48v44.48ZM1139.76,175.07h-44.48v-44.48h44.48v44.48ZM1139.76,129.98h-44.48v-44.48h44.48v44.48ZM1139.76,84.88h-44.48v-44.48h44.48v44.48ZM1139.76,39.79h-44.48V-4.69h44.48v44.48ZM1139.76-5.3h-44.48v-44.48h44.48V-5.3ZM1184.85,220.16h-44.48v-44.48h44.48v44.48ZM1184.85,175.07h-44.48v-44.48h44.48v44.48ZM1184.85,129.98h-44.48v-44.48h44.48v44.48ZM1184.85,84.88h-44.48v-44.48h44.48v44.48ZM1184.85,39.79h-44.48V-4.69h44.48v44.48ZM1184.85-5.3h-44.48v-44.48h44.48V-5.3ZM1229.94,220.16h-44.48v-44.48h44.48v44.48ZM1229.94,175.07h-44.48v-44.48h44.48v44.48ZM1229.94,129.98h-44.48v-44.48h44.48v44.48ZM1229.94,84.88h-44.48v-44.48h44.48v44.48ZM1229.94,39.79h-44.48V-4.69h44.48v44.48ZM1229.94-5.3h-44.48v-44.48h44.48V-5.3ZM1275.04,220.16h-44.48v-44.48h44.48v44.48ZM1275.04,175.07h-44.48v-44.48h44.48v44.48ZM1275.04,129.98h-44.48v-44.48h44.48v44.48ZM1275.04,84.88h-44.48v-44.48h44.48v44.48ZM1275.04,39.79h-44.48V-4.69h44.48v44.48ZM1275.04-5.3h-44.48v-44.48h44.48V-5.3ZM1320.13,220.16h-44.48v-44.48h44.48v44.48ZM1320.13,175.07h-44.48v-44.48h44.48v44.48ZM1320.13,129.98h-44.48v-44.48h44.48v44.48ZM1320.13,84.88h-44.48v-44.48h44.48v44.48ZM1320.13,39.79h-44.48V-4.69h44.48v44.48ZM1320.13-5.3h-44.48v-44.48h44.48V-5.3ZM1365.23,220.16h-44.48v-44.48h44.48v44.48ZM1365.23,175.07h-44.48v-44.48h44.48v44.48ZM1365.23,129.98h-44.48v-44.48h44.48v44.48ZM1365.23,84.88h-44.48v-44.48h44.48v44.48ZM1365.23,39.79h-44.48V-4.69h44.48v44.48ZM1365.23-5.3h-44.48v-44.48h44.48V-5.3Z"/>
        </g>
      </g>
      <text class="cls-24" transform="translate(910.39 160.23)"><tspan class="cls-18" x="0" y="0">3 J</tspan><tspan class="cls-31" x="45.35" y="0">U</tspan><tspan class="cls-15" x="58.4" y="0">SI</tspan><tspan class="cls-29" x="78.07" y="0">Z</tspan><tspan class="cls-16" x="89.72" y="0">O</tspan></text>
      <text class="cls-17" transform="translate(858.79 32.18)"><tspan x="0" y="0">   </tspan></text>
      <text class="cls-10" transform="translate(890 134)"><tspan class="cls-28" x="0" y="0">2</tspan><tspan class="cls-27" x="60.9" y="0">nd</tspan></text>
      <text class="cls-6" transform="translate(885 129)"><tspan class="cls-28" x="0" y="0">2</tspan><tspan class="cls-27" x="60.9" y="0">nd</tspan></text>
    </g>
  </g>
</svg>